<svg xmlns="http://www.w3.org/2000/svg" xmlns:xlink="http://www.w3.org/1999/xlink" version="1.1" data-diagram-type="DESCRIPTION" style="width:2330px;height:953px;background:#F8FAFC;" width="2330px" height="953px" viewBox="0 0 2330 953" zoomAndPan="magnify" preserveAspectRatio="none" contentStyleType="text/css"><?plantuml 1.2026.7beta3?><defs/><g><rect x="0" y="0" width="2330" height="953" fill="#F8FAFC" style="stroke:none;stroke-width:1;"/><!--cluster master--><g class="cluster" data-qualified-name="master" id="ent0002" data-source-line="53"><polygon points="1764,113.9,1774,103.9,2305,103.9,2305,223.33,2295,233.33,1764,233.33,1764,113.9" fill="#EFF6FF" style="stroke:#3B82F6;stroke-width:1.5;stroke-linejoin:miter;stroke-miterlimit:10;"/><line x1="2295" y1="113.9" x2="2305" y2="103.9" style="stroke:#3B82F6;stroke-width:1.5;"/><line x1="1764" y1="113.9" x2="2295" y2="113.9" style="stroke:#3B82F6;stroke-width:1.5;"/><line x1="2295" y1="113.9" x2="2295" y2="233.33" style="stroke:#3B82F6;stroke-width:1.5;"/><text x="1956.019" y="127.1104" fill="#000000" font-size="11" lengthAdjust="spacing" textLength="148.9619" font-weight="700" font-family="'Arial, Helvetica, sans-serif'">Master Node — PC-1193</text></g><!--cluster n1--><g class="cluster" data-qualified-name="n1" id="ent0005" data-source-line="63"><polygon points="16,119.14,26,109.14,556,109.14,556,501.24,546,511.24,16,511.24,16,119.14" fill="#EFF6FF" style="stroke:#3B82F6;stroke-width:1.5;stroke-linejoin:miter;stroke-miterlimit:10;"/><line x1="546" y1="119.14" x2="556" y2="109.14" style="stroke:#3B82F6;stroke-width:1.5;"/><line x1="16" y1="119.14" x2="546" y2="119.14" style="stroke:#3B82F6;stroke-width:1.5;"/><line x1="546" y1="119.14" x2="546" y2="511.24" style="stroke:#3B82F6;stroke-width:1.5;"/><text x="201.8982" y="132.3504" fill="#000000" font-size="11" lengthAdjust="spacing" textLength="160.2036" font-weight="700" font-family="'Arial, Helvetica, sans-serif'">PC-1193  (master + node)</text></g><!--cluster n2--><g class="cluster" data-qualified-name="n2" id="ent0010" data-source-line="70"><polygon points="596,283.33,606,273.33,1136,273.33,1136,612.19,1126,622.19,596,622.19,596,283.33" fill="#EFF6FF" style="stroke:#3B82F6;stroke-width:1.5;stroke-linejoin:miter;stroke-miterlimit:10;"/><line x1="1126" y1="283.33" x2="1136" y2="273.33" style="stroke:#3B82F6;stroke-width:1.5;"/><line x1="596" y1="283.33" x2="1126" y2="283.33" style="stroke:#3B82F6;stroke-width:1.5;"/><line x1="1126" y1="283.33" x2="1126" y2="622.19" style="stroke:#3B82F6;stroke-width:1.5;"/><text x="805.813" y="296.5404" fill="#000000" font-size="11" lengthAdjust="spacing" textLength="112.374" font-weight="700" font-family="'Arial, Helvetica, sans-serif'">PC-1191  (worker)</text></g><!--cluster n3--><g class="cluster" data-qualified-name="n3" id="ent0015" data-source-line="77"><polygon points="1176,402.29,1186,392.29,1716,392.29,1716,723.15,1706,733.15,1176,733.15,1176,402.29" fill="#EFF6FF" style="stroke:#3B82F6;stroke-width:1.5;stroke-linejoin:miter;stroke-miterlimit:10;"/><line x1="1706" y1="402.29" x2="1716" y2="392.29" style="stroke:#3B82F6;stroke-width:1.5;"/><line x1="1176" y1="402.29" x2="1706" y2="402.29" style="stroke:#3B82F6;stroke-width:1.5;"/><line x1="1706" y1="402.29" x2="1706" y2="733.15" style="stroke:#3B82F6;stroke-width:1.5;"/><text x="1385.813" y="415.5004" fill="#000000" font-size="11" lengthAdjust="spacing" textLength="112.374" font-weight="700" font-family="'Arial, Helvetica, sans-serif'">PC-1192  (worker)</text></g><!--entity nginx--><g class="entity" data-qualified-name="master.nginx" id="ent0003" data-source-line="54"><rect x="1807.17" y="147.9" width="227.6685" height="61.4297" fill="#D1FAE5" style="stroke:#94A3B8;stroke-width:1;" rx="3" ry="3"/><rect x="2014.8385" y="152.9" width="15" height="10" fill="#D1FAE5" style="stroke:#94A3B8;stroke-width:1;"/><rect x="2012.8385" y="154.9" width="4" height="2" fill="#D1FAE5" style="stroke:#94A3B8;stroke-width:1;"/><rect x="2012.8385" y="158.9" width="4" height="2" fill="#D1FAE5" style="stroke:#94A3B8;stroke-width:1;"/><text x="1822.17" y="176.254" fill="#000000" font-size="9" lengthAdjust="spacing" textLength="29.272" font-weight="700" font-family="'Arial, Helvetica, sans-serif'">Nginx</text><text x="1854.3028" y="176.254" fill="#000000" font-size="9" lengthAdjust="spacing" textLength="14.4844" font-family="'Arial, Helvetica, sans-serif'">:80</text><text x="1822.17" y="186.7306" fill="#000000" font-size="9" lengthAdjust="spacing" textLength="187.6685" font-family="'Arial, Helvetica, sans-serif'">least_conn · passive health (max_fails=3)</text><text x="1822.17" y="197.2071" fill="#000000" font-size="9" lengthAdjust="spacing" textLength="112.5483" font-family="'Arial, Helvetica, sans-serif'">X-Upstream-Addr header</text></g><!--entity amq--><g class="entity" data-qualified-name="master.amq" id="ent0004" data-source-line="55"><rect x="2069.42" y="147.9" width="211.1626" height="61.4297" fill="#FEE2E2" style="stroke:#94A3B8;stroke-width:1;" rx="3" ry="3"/><rect x="2260.5826" y="152.9" width="15" height="10" fill="#FEE2E2" style="stroke:#94A3B8;stroke-width:1;"/><rect x="2258.5826" y="154.9" width="4" height="2" fill="#FEE2E2" style="stroke:#94A3B8;stroke-width:1;"/><rect x="2258.5826" y="158.9" width="4" height="2" fill="#FEE2E2" style="stroke:#94A3B8;stroke-width:1;"/><text x="2084.42" y="176.254" fill="#000000" font-size="9" lengthAdjust="spacing" textLength="48.2651" font-weight="700" font-family="'Arial, Helvetica, sans-serif'">ActiveMQ</text><text x="2135.546" y="176.254" fill="#000000" font-size="9" lengthAdjust="spacing" textLength="31.6626" font-family="'Arial, Helvetica, sans-serif'">:61616</text><text x="2084.42" y="186.7306" fill="#000000" font-size="9" lengthAdjust="spacing" textLength="121.2803" font-family="'Arial, Helvetica, sans-serif'">queue: document.ingested</text><text x="2084.42" y="197.2071" fill="#000000" font-size="9" lengthAdjust="spacing" textLength="171.1626" font-family="'Arial, Helvetica, sans-serif'">PERSISTENT · CLIENT_ACKNOWLEDGE</text></g><!--entity s1--><g class="entity" data-qualified-name="n1.s1" id="ent0006" data-source-line="64"><rect x="59.09" y="153.14" width="221.8193" height="50.9531" fill="#DBEAFE" style="stroke:#94A3B8;stroke-width:1;" rx="3" ry="3"/><rect x="260.9093" y="158.14" width="15" height="10" fill="#DBEAFE" style="stroke:#94A3B8;stroke-width:1;"/><rect x="258.9093" y="160.14" width="4" height="2" fill="#DBEAFE" style="stroke:#94A3B8;stroke-width:1;"/><rect x="258.9093" y="164.14" width="4" height="2" fill="#DBEAFE" style="stroke:#94A3B8;stroke-width:1;"/><text x="74.09" y="181.494" fill="#000000" font-size="9" lengthAdjust="spacing" textLength="34.8398" font-weight="700" font-family="'Arial, Helvetica, sans-serif'">Search</text><text x="111.7907" y="181.494" fill="#000000" font-size="9" lengthAdjust="spacing" textLength="25.9365" font-family="'Arial, Helvetica, sans-serif'">:8082</text><text x="74.09" y="191.9706" fill="#000000" font-size="9" lengthAdjust="spacing" textLength="181.8193" font-family="'Arial, Helvetica, sans-serif'">Hazelcast :5702 · TermNearCache (LRU)</text></g><!--entity i1--><g class="entity" data-qualified-name="n1.i1" id="ent0007" data-source-line="65"><rect x="320.45" y="436.29" width="209.0972" height="50.9531" fill="#EDE9FE" style="stroke:#94A3B8;stroke-width:1;" rx="3" ry="3"/><rect x="509.5472" y="441.29" width="15" height="10" fill="#EDE9FE" style="stroke:#94A3B8;stroke-width:1;"/><rect x="507.5472" y="443.29" width="4" height="2" fill="#EDE9FE" style="stroke:#94A3B8;stroke-width:1;"/><rect x="507.5472" y="447.29" width="4" height="2" fill="#EDE9FE" style="stroke:#94A3B8;stroke-width:1;"/><text x="335.45" y="464.644" fill="#000000" font-size="9" lengthAdjust="spacing" textLength="38.6499" font-weight="700" font-family="'Arial, Helvetica, sans-serif'">Indexer</text><text x="376.9607" y="464.644" fill="#000000" font-size="9" lengthAdjust="spacing" textLength="25.9365" font-family="'Arial, Helvetica, sans-serif'">:8081</text><text x="335.45" y="475.1206" fill="#000000" font-size="9" lengthAdjust="spacing" textLength="169.0972" font-family="'Arial, Helvetica, sans-serif'">Hazelcast :5701 · idempotency check</text></g><!--entity c1--><g class="entity" data-qualified-name="n1.c1" id="ent0008" data-source-line="66"><rect x="315.78" y="153.14" width="216.4492" height="50.9531" fill="#D1FAE5" style="stroke:#94A3B8;stroke-width:1;" rx="3" ry="3"/><rect x="512.2292" y="158.14" width="15" height="10" fill="#D1FAE5" style="stroke:#94A3B8;stroke-width:1;"/><rect x="510.2292" y="160.14" width="4" height="2" fill="#D1FAE5" style="stroke:#94A3B8;stroke-width:1;"/><rect x="510.2292" y="164.14" width="4" height="2" fill="#D1FAE5" style="stroke:#94A3B8;stroke-width:1;"/><text x="330.78" y="181.494" fill="#000000" font-size="9" lengthAdjust="spacing" textLength="39.0586" font-weight="700" font-family="'Arial, Helvetica, sans-serif'">Crawler</text><text x="372.6994" y="181.494" fill="#000000" font-size="9" lengthAdjust="spacing" textLength="25.9365" font-family="'Arial, Helvetica, sans-serif'">:8080</text><text x="330.78" y="191.9706" fill="#000000" font-size="9" lengthAdjust="spacing" textLength="176.4492" font-family="'Arial, Helvetica, sans-serif'">GutenbergDownloader · 9 URL variants</text></g><!--entity dl1--><g class="entity" data-qualified-name="n1.dl1" id="ent0009" data-source-line="67"><path d="M342.39,327.83 C342.39,317.83 425.003,317.83 425.003,317.83 C425.003,317.83 507.6161,317.83 507.6161,327.83 L507.6161,357.7831 C507.6161,367.7831 425.003,367.7831 425.003,367.7831 C425.003,367.7831 342.39,367.7831 342.39,357.7831 L342.39,327.83" style="stroke:#92400E;stroke-width:0.5;" fill="#FEF3C7"/><path d="M342.39,327.83 C342.39,337.83 425.003,337.83 425.003,337.83 C425.003,337.83 507.6161,337.83 507.6161,327.83" style="stroke:#92400E;stroke-width:0.5;" fill="none"/><text x="352.39" y="350.184" fill="#000000" font-size="9" lengthAdjust="spacing" textLength="40.2539" font-family="'Arial, Helvetica, sans-serif'">Datalake</text><text x="352.39" y="360.6606" fill="#000000" font-size="9" lengthAdjust="spacing" textLength="145.2261" font-family="'Arial, Helvetica, sans-serif'">(bucket layout · Docker volume)</text></g><!--entity s2--><g class="entity" data-qualified-name="n2.s2" id="ent0011" data-source-line="71"><rect x="639.09" y="317.33" width="221.8193" height="50.9531" fill="#DBEAFE" style="stroke:#94A3B8;stroke-width:1;" rx="3" ry="3"/><rect x="840.9093" y="322.33" width="15" height="10" fill="#DBEAFE" style="stroke:#94A3B8;stroke-width:1;"/><rect x="838.9093" y="324.33" width="4" height="2" fill="#DBEAFE" style="stroke:#94A3B8;stroke-width:1;"/><rect x="838.9093" y="328.33" width="4" height="2" fill="#DBEAFE" style="stroke:#94A3B8;stroke-width:1;"/><text x="654.09" y="345.684" fill="#000000" font-size="9" lengthAdjust="spacing" textLength="34.8398" font-weight="700" font-family="'Arial, Helvetica, sans-serif'">Search</text><text x="691.7907" y="345.684" fill="#000000" font-size="9" lengthAdjust="spacing" textLength="25.9365" font-family="'Arial, Helvetica, sans-serif'">:8082</text><text x="654.09" y="356.1606" fill="#000000" font-size="9" lengthAdjust="spacing" textLength="181.8193" font-family="'Arial, Helvetica, sans-serif'">Hazelcast :5702 · TermNearCache (LRU)</text></g><!--entity i2--><g class="entity" data-qualified-name="n2.i2" id="ent0012" data-source-line="72"><rect x="899.45" y="547.24" width="209.0972" height="50.9531" fill="#EDE9FE" style="stroke:#94A3B8;stroke-width:1;" rx="3" ry="3"/><rect x="1088.5472" y="552.24" width="15" height="10" fill="#EDE9FE" style="stroke:#94A3B8;stroke-width:1;"/><rect x="1086.5472" y="554.24" width="4" height="2" fill="#EDE9FE" style="stroke:#94A3B8;stroke-width:1;"/><rect x="1086.5472" y="558.24" width="4" height="2" fill="#EDE9FE" style="stroke:#94A3B8;stroke-width:1;"/><text x="914.45" y="575.594" fill="#000000" font-size="9" lengthAdjust="spacing" textLength="38.6499" font-weight="700" font-family="'Arial, Helvetica, sans-serif'">Indexer</text><text x="955.9607" y="575.594" fill="#000000" font-size="9" lengthAdjust="spacing" textLength="25.9365" font-family="'Arial, Helvetica, sans-serif'">:8081</text><text x="914.45" y="586.0706" fill="#000000" font-size="9" lengthAdjust="spacing" textLength="169.0972" font-family="'Arial, Helvetica, sans-serif'">Hazelcast :5701 · idempotency check</text></g><!--entity c2--><g class="entity" data-qualified-name="n2.c2" id="ent0013" data-source-line="73"><rect x="895.78" y="317.33" width="216.4492" height="50.9531" fill="#D1FAE5" style="stroke:#94A3B8;stroke-width:1;" rx="3" ry="3"/><rect x="1092.2292" y="322.33" width="15" height="10" fill="#D1FAE5" style="stroke:#94A3B8;stroke-width:1;"/><rect x="1090.2292" y="324.33" width="4" height="2" fill="#D1FAE5" style="stroke:#94A3B8;stroke-width:1;"/><rect x="1090.2292" y="328.33" width="4" height="2" fill="#D1FAE5" style="stroke:#94A3B8;stroke-width:1;"/><text x="910.78" y="345.684" fill="#000000" font-size="9" lengthAdjust="spacing" textLength="39.0586" font-weight="700" font-family="'Arial, Helvetica, sans-serif'">Crawler</text><text x="952.6994" y="345.684" fill="#000000" font-size="9" lengthAdjust="spacing" textLength="25.9365" font-family="'Arial, Helvetica, sans-serif'">:8080</text><text x="910.78" y="356.1606" fill="#000000" font-size="9" lengthAdjust="spacing" textLength="176.4492" font-family="'Arial, Helvetica, sans-serif'">GutenbergDownloader · 9 URL variants</text></g><!--entity dl2--><g class="entity" data-qualified-name="n2.dl2" id="ent0014" data-source-line="74"><path d="M921.39,446.79 C921.39,436.79 1004.003,436.79 1004.003,436.79 C1004.003,436.79 1086.6161,436.79 1086.6161,446.79 L1086.6161,476.7431 C1086.6161,486.7431 1004.003,486.7431 1004.003,486.7431 C1004.003,486.7431 921.39,486.7431 921.39,476.7431 L921.39,446.79" style="stroke:#92400E;stroke-width:0.5;" fill="#FEF3C7"/><path d="M921.39,446.79 C921.39,456.79 1004.003,456.79 1004.003,456.79 C1004.003,456.79 1086.6161,456.79 1086.6161,446.79" style="stroke:#92400E;stroke-width:0.5;" fill="none"/><text x="931.39" y="469.144" fill="#000000" font-size="9" lengthAdjust="spacing" textLength="40.2539" font-family="'Arial, Helvetica, sans-serif'">Datalake</text><text x="931.39" y="479.6206" fill="#000000" font-size="9" lengthAdjust="spacing" textLength="145.2261" font-family="'Arial, Helvetica, sans-serif'">(bucket layout · Docker volume)</text></g><!--entity s3--><g class="entity" data-qualified-name="n3.s3" id="ent0016" data-source-line="78"><rect x="1219.09" y="436.29" width="221.8193" height="50.9531" fill="#DBEAFE" style="stroke:#94A3B8;stroke-width:1;" rx="3" ry="3"/><rect x="1420.9093" y="441.29" width="15" height="10" fill="#DBEAFE" style="stroke:#94A3B8;stroke-width:1;"/><rect x="1418.9093" y="443.29" width="4" height="2" fill="#DBEAFE" style="stroke:#94A3B8;stroke-width:1;"/><rect x="1418.9093" y="447.29" width="4" height="2" fill="#DBEAFE" style="stroke:#94A3B8;stroke-width:1;"/><text x="1234.09" y="464.644" fill="#000000" font-size="9" lengthAdjust="spacing" textLength="34.8398" font-weight="700" font-family="'Arial, Helvetica, sans-serif'">Search</text><text x="1271.7907" y="464.644" fill="#000000" font-size="9" lengthAdjust="spacing" textLength="25.9365" font-family="'Arial, Helvetica, sans-serif'">:8082</text><text x="1234.09" y="475.1206" fill="#000000" font-size="9" lengthAdjust="spacing" textLength="181.8193" font-family="'Arial, Helvetica, sans-serif'">Hazelcast :5702 · TermNearCache (LRU)</text></g><!--entity i3--><g class="entity" data-qualified-name="n3.i3" id="ent0017" data-source-line="79"><rect x="1349.45" y="658.19" width="209.0972" height="50.9531" fill="#EDE9FE" style="stroke:#94A3B8;stroke-width:1;" rx="3" ry="3"/><rect x="1538.5472" y="663.19" width="15" height="10" fill="#EDE9FE" style="stroke:#94A3B8;stroke-width:1;"/><rect x="1536.5472" y="665.19" width="4" height="2" fill="#EDE9FE" style="stroke:#94A3B8;stroke-width:1;"/><rect x="1536.5472" y="669.19" width="4" height="2" fill="#EDE9FE" style="stroke:#94A3B8;stroke-width:1;"/><text x="1364.45" y="686.544" fill="#000000" font-size="9" lengthAdjust="spacing" textLength="38.6499" font-weight="700" font-family="'Arial, Helvetica, sans-serif'">Indexer</text><text x="1405.9607" y="686.544" fill="#000000" font-size="9" lengthAdjust="spacing" textLength="25.9365" font-family="'Arial, Helvetica, sans-serif'">:8081</text><text x="1364.45" y="697.0206" fill="#000000" font-size="9" lengthAdjust="spacing" textLength="169.0972" font-family="'Arial, Helvetica, sans-serif'">Hazelcast :5701 · idempotency check</text></g><!--entity c3--><g class="entity" data-qualified-name="n3.c3" id="ent0018" data-source-line="80"><rect x="1475.78" y="436.29" width="216.4492" height="50.9531" fill="#D1FAE5" style="stroke:#94A3B8;stroke-width:1;" rx="3" ry="3"/><rect x="1672.2292" y="441.29" width="15" height="10" fill="#D1FAE5" style="stroke:#94A3B8;stroke-width:1;"/><rect x="1670.2292" y="443.29" width="4" height="2" fill="#D1FAE5" style="stroke:#94A3B8;stroke-width:1;"/><rect x="1670.2292" y="447.29" width="4" height="2" fill="#D1FAE5" style="stroke:#94A3B8;stroke-width:1;"/><text x="1490.78" y="464.644" fill="#000000" font-size="9" lengthAdjust="spacing" textLength="39.0586" font-weight="700" font-family="'Arial, Helvetica, sans-serif'">Crawler</text><text x="1532.6994" y="464.644" fill="#000000" font-size="9" lengthAdjust="spacing" textLength="25.9365" font-family="'Arial, Helvetica, sans-serif'">:8080</text><text x="1490.78" y="475.1206" fill="#000000" font-size="9" lengthAdjust="spacing" textLength="176.4492" font-family="'Arial, Helvetica, sans-serif'">GutenbergDownloader · 9 URL variants</text></g><!--entity dl3--><g class="entity" data-qualified-name="n3.dl3" id="ent0019" data-source-line="81"><path d="M1371.39,557.74 C1371.39,547.74 1454.003,547.74 1454.003,547.74 C1454.003,547.74 1536.6161,547.74 1536.6161,557.74 L1536.6161,587.6931 C1536.6161,597.6931 1454.003,597.6931 1454.003,597.6931 C1454.003,597.6931 1371.39,597.6931 1371.39,587.6931 L1371.39,557.74" style="stroke:#92400E;stroke-width:0.5;" fill="#FEF3C7"/><path d="M1371.39,557.74 C1371.39,567.74 1454.003,567.74 1454.003,567.74 C1454.003,567.74 1536.6161,567.74 1536.6161,557.74" style="stroke:#92400E;stroke-width:0.5;" fill="none"/><text x="1381.39" y="580.094" fill="#000000" font-size="9" lengthAdjust="spacing" textLength="40.2539" font-family="'Arial, Helvetica, sans-serif'">Datalake</text><text x="1381.39" y="590.5706" fill="#000000" font-size="9" lengthAdjust="spacing" textLength="145.2261" font-family="'Arial, Helvetica, sans-serif'">(bucket layout · Docker volume)</text></g><!--entity client--><g class="entity" data-qualified-name="client" id="ent0001" data-source-line="48"><ellipse cx="1845.9951" cy="14" rx="8" ry="8" fill="#FFFFFF" style="stroke:#64748B;stroke-width:0.5;"/><path d="M1845.9951,22 L1845.9951,49 M1832.9951,30 L1858.9951,30 M1845.9951,49 L1832.9951,64 M1845.9951,49 L1858.9951,64" style="stroke:#64748B;stroke-width:0.5;" fill="none"/><text x="1831.52" y="74.7822" fill="#000000" font-size="10" lengthAdjust="spacing" textLength="28.9502" font-family="'Arial, Helvetica, sans-serif'">Client</text></g><g class="entity" data-qualified-name="GMN20" id="ent0021" data-source-line="87"><path d="M1747.76,442.3 L1747.76,481.2219 A3,3 0 0 0 1750.76,484.2219 L1927.2346,484.2219 A3,3 0 0 0 1930.2346,481.2219 L1930.2346,449.3 L1920.2346,439.3 L1750.76,439.3 A3,3 0 0 0 1747.76,442.3" style="stroke:#181818;stroke-width:0.5;" fill="#FEFFDD"/><path d="M1920.2346,439.3 L1920.2346,447.8 A1.5,1.5 0 0 0 1921.7346,449.3 L1930.2346,449.3 L1920.2346,439.3" style="stroke:#181818;stroke-width:1;" fill="#FEFFDD"/><text x="1753.76" y="453.5822" fill="#000000" font-size="10" lengthAdjust="spacing" textLength="161.4746" font-weight="700" font-family="'Arial, Helvetica, sans-serif'">PC-1194 · PC-1196 · PC-1198</text><text x="1753.76" y="465.2229" fill="#000000" font-size="10" lengthAdjust="spacing" textLength="122.7686" font-family="'Arial, Helvetica, sans-serif'">follow the same pattern.</text><text x="1753.76" y="476.8635" fill="#000000" font-size="10" lengthAdjust="spacing" textLength="125.9131" font-family="'Arial, Helvetica, sans-serif'">Config C = 6 nodes total.</text></g><!--entity hz--><g class="entity" data-qualified-name="hz" id="ent0023" data-source-line="95"><path d="M168.0047,779.5001 C177.391,764.1572 191.5691,763.2208 203.123,776.8749 C215.836,761.5274 227.6203,761.505 240.708,776.4095 C252.3102,760.8572 263.285,757.7321 276.1646,775.0307 C289.2605,758.2404 301.0497,756.8346 313.4535,775.7535 C322.1215,761.8162 336.0232,761.4513 345.5994,774.6788 C352.5405,760.3461 366.5419,756.583 377.2536,770.4457 C387.5376,748.9713 404.1437,752.8922 415.907,768.921 C428.1256,752.8278 442.2175,758.8552 448.9331,774.625 C460.7599,755.346 473.326,758.3743 484.7122,775.0634 C494.2746,756.5206 508.4036,755.6697 519.2629,773.8428 C534.0173,757.4364 545.8597,758.9503 554.6867,779.5212 C563.3724,764.9348 579.743,763.9143 589.0328,778.8175 C599.4963,763.5757 614.2409,762.8284 622.1408,781.3327 C631.4229,761.5841 647.0152,760.4233 658.3271,779.4379 C664.8321,782.3545 664.8297,786.4416 659.6938,790.7631 C665.8033,793.9416 665.0832,798.4179 660.1441,802.0377 C666.3689,806.8848 664.1252,810.9712 658.6674,814.4258 C665.5963,817.5261 666.1876,822.1003 661.4161,827.6353 C650.3202,847.4533 637.5319,845.3723 624.9474,829.1412 C614.0772,849.8742 597.2688,847.9182 586.8634,828.6981 C577.5067,842.8711 568.3821,843.8277 556.8386,831.1428 C545.8726,849.1594 530.5298,846.0914 520.4448,830.1974 C508.8783,849.3939 497.5148,849.7295 482.9751,833.3268 C473.2241,849.8215 457.3938,849.0126 449.0613,831.8956 C438.8916,848.1656 427.4275,848.374 417.6415,831.5316 C408.8325,848.0929 390.7012,850.1276 380.3036,833.3086 C371.2766,847.9155 355.4997,848.1943 347.6962,832.0129 C334.0218,848.9508 322.3676,845.8191 311.9249,828.6258 C298.8834,848.8543 286.3373,849.0211 273.6715,828.275 C262.2479,843.9311 251.0464,843.9043 239.9471,827.9293 C228.4507,846.4506 215.5376,848.3505 203.4491,828.4923 C194.0252,847.5069 177.3051,844.2714 168.0313,828.3401 C160.7294,825.6792 157.9248,819.776 164.8968,813.9959 C158.4148,811.6945 158.2211,807.9111 161.6517,802.7495 C156.5605,796.7469 158.8493,792.3278 166.0761,790.9401 C161.1822,786.4453 161.3491,782.0478 168.0047,779.5001" style="stroke:#2166AC;stroke-width:1.5;" fill="#DBEAFE"/><text x="174.33" y="793.4322" fill="#000000" font-size="10" lengthAdjust="spacing" textLength="6.3574" font-family="'Arial, Helvetica, sans-serif'">  </text><text x="180.6874" y="793.4322" fill="#000000" font-size="10" lengthAdjust="spacing" textLength="98.3691" font-weight="700" font-family="'Arial, Helvetica, sans-serif'">Hazelcast Cluster</text><text x="285.414" y="793.4322" fill="#000000" font-size="10" lengthAdjust="spacing" textLength="250.7422" font-family="'Arial, Helvetica, sans-serif'">\"search-cluster\"  (TCP-IP · backupCount = 2 + 1)</text><text x="180.6874" y="805.0729" fill="#000000" font-size="10" lengthAdjust="spacing" textLength="342.7295" font-family="'Arial, Helvetica, sans-serif'">MultiMap&lt;String,String>  inverted-index  (ValueCollectionType.SET)</text><text x="180.6874" y="816.7135" fill="#000000" font-size="10" lengthAdjust="spacing" textLength="462.6172" font-family="'Arial, Helvetica, sans-serif'">IMap&lt;Integer,BookMetadata>  book-metadata  (near cache · OBJECT · invalidateOnChange)</text></g><g class="entity" data-qualified-name="GMN55" id="ent0056" data-source-line="155"><path d="M75.04,897.07 L75.04,935.9919 A3,3 0 0 0 78.04,938.9919 L745.955,938.9919 A3,3 0 0 0 748.955,935.9919 L748.955,904.07 L738.955,894.07 L416,894.07 L412,834.54 L408,894.07 L78.04,894.07 A3,3 0 0 0 75.04,897.07" style="stroke:#181818;stroke-width:0.5;" fill="#FEFFDD"/><path d="M738.955,894.07 L738.955,902.57 A1.5,1.5 0 0 0 740.455,904.07 L748.955,904.07 L738.955,894.07" style="stroke:#181818;stroke-width:0.5;" fill="#FEFFDD"/><text x="81.04" y="908.3522" fill="#000000" font-size="10" lengthAdjust="spacing" textLength="98.335" font-weight="700" font-family="'Arial, Helvetica, sans-serif'">Docker Compose:</text><text x="185.7324" y="908.3522" fill="#000000" font-size="10" lengthAdjust="spacing" textLength="548.2227" font-family="'Arial, Helvetica, sans-serif'">profile=master → Nginx + ActiveMQ (PC-1193 only)  ·  profile=node → crawler + indexer + search (all nodes)</text><text x="81.04" y="919.9929" fill="#000000" font-size="10" lengthAdjust="spacing" textLength="46.6357" font-weight="700" font-family="'Arial, Helvetica, sans-serif'">Scoring:</text><text x="134.0332" y="919.9929" fill="#000000" font-size="10" lengthAdjust="spacing" textLength="266.7432" font-family="'Arial, Helvetica, sans-serif'">+10 title hit · +5 author hit · +1 body hit  (no TF-IDF)</text><text x="81.04" y="931.6335" fill="#000000" font-size="10" lengthAdjust="spacing" textLength="56.0303" font-weight="700" font-family="'Arial, Helvetica, sans-serif'">Recovery:</text><text x="143.4277" y="931.6335" fill="#000000" font-size="10" lengthAdjust="spacing" textLength="451.7041" font-family="'Arial, Helvetica, sans-serif'">rebuildIndexFromLocalFiles() waits for isClusterSafe() then replays *_body.txt → Hazelcast</text></g><!--link n3 to GMN20--><g class="link" data-entity-1="ent0015" data-entity-2="ent0021" id="lnk22" data-source-line="87" data-link-type="association"><path d="M1717.4897,422.99 C1718.0982,422.99 1718.701,422.99 1719.2982,422.99 C1720.4925,422.99 1721.664,422.99 1722.812,422.99 C1727.4043,422.99 1731.6224,422.99 1735.4322,422.99 C1750.6717,422.99 1759.38,422.99 1759.38,422.99 C1759.38,422.99 1759.38,430.68 1759.38,439.21" style="stroke:#181818;stroke-width:1.3;stroke-dasharray:7,7;" fill="none" id="n3-GMN20"/></g><!--link client to master--><!--link master to n1--><!--link master to n2--><!--link master to n3--><!--link n1 to hz--><!--link n2 to hz--><!--link n3 to hz--><!--link client to nginx--><g class="link" data-entity-1="ent0001" data-entity-2="ent0003" id="lnk31" data-source-line="113" data-link-type="dependency"><path d="M1846,77.4 C1846,99.16 1846,121.62 1846,142.45" style="stroke:#181818;stroke-width:1.3;" fill="none" id="client-to-nginx"/><polygon points="1846,147.45,1850,138.45,1846,142.45,1842,138.45,1846,147.45" fill="#181818" style="stroke:#181818;stroke-width:1.3;stroke-linejoin:miter;stroke-miterlimit:10;"/><text x="1780" y="109.7022" fill="#000000" font-size="10" lengthAdjust="spacing" textLength="65.752" font-family="'Arial, Helvetica, sans-serif'">HTTP /search</text></g><!--link nginx to s1--><g class="link" data-entity-1="ent0003" data-entity-2="ent0006" id="lnk32" data-source-line="114" data-link-type="dependency"><path d="M1819.35,147.49 C1819.35,125.89 1819.35,100.99 1819.35,100.99 C1819.35,100.99 170,100.99 170,100.99 C170,100.99 170,125.19 170,147.77" style="stroke:#181818;stroke-width:1.3;" fill="none" id="nginx-to-s1"/><polygon points="170,152.77,174,143.77,170,147.77,166,143.77,170,152.77" fill="#181818" style="stroke:#181818;stroke-width:1.3;stroke-linejoin:miter;stroke-miterlimit:10;"/><text x="966.03" y="98.2722" fill="#000000" font-size="10" lengthAdjust="spacing" textLength="25.7666" font-family="'Arial, Helvetica, sans-serif'">HTTP</text></g><!--link nginx to s2--><g class="link" data-entity-1="ent0003" data-entity-2="ent0011" id="lnk33" data-source-line="115" data-link-type="dependency"><path d="M1806.85,187.99 C1512.39,187.99 750,187.99 750,187.99 C750,187.99 750,267.82 750,311.9" style="stroke:#181818;stroke-width:1.3;stroke-dasharray:7,7;" fill="none" id="nginx-to-s2"/><polygon points="750,316.9,754,307.9,750,311.9,746,307.9,750,316.9" fill="#181818" style="stroke:#181818;stroke-width:1.3;stroke-linejoin:miter;stroke-miterlimit:10;"/></g><!--link nginx to s3--><g class="link" data-entity-1="ent0003" data-entity-2="ent0016" id="lnk34" data-source-line="116" data-link-type="dependency"><path d="M1806.7,195.99 C1634.9,195.99 1330,195.99 1330,195.99 C1330,195.99 1330,363.92 1330,430.8" style="stroke:#181818;stroke-width:1.3;stroke-dasharray:7,7;" fill="none" id="nginx-to-s3"/><polygon points="1330,435.8,1334,426.8,1330,430.8,1326,426.8,1330,435.8" fill="#181818" style="stroke:#181818;stroke-width:1.3;stroke-linejoin:miter;stroke-miterlimit:10;"/></g><!--link s1 to hz--><g class="link" data-entity-1="ent0006" data-entity-2="ent0023" id="lnk35" data-source-line="120" data-link-type="dependency"><path d="M220.12,204.59 C220.12,303.85 220.12,654.05 220.12,763.96" style="stroke:#2166AC;stroke-width:1.3;stroke-dasharray:7,7;" fill="none" id="s1-to-hz"/><polygon points="220.12,768.96,224.12,759.96,220.12,763.96,216.12,759.96,220.12,768.96" fill="#2166AC" style="stroke:#2166AC;stroke-width:1.3;stroke-linejoin:miter;stroke-miterlimit:10;"/><text x="197.12" y="484.0622" fill="#000000" font-size="10" lengthAdjust="spacing" textLength="22.7393" font-family="'Arial, Helvetica, sans-serif'">read</text></g><!--link s2 to hz--><g class="link" data-entity-1="ent0011" data-entity-2="ent0023" id="lnk36" data-source-line="121" data-link-type="dependency"><path d="M645.48,368.46 C645.48,446.59 645.48,676.57 645.48,763.66" style="stroke:#2166AC;stroke-width:1.3;stroke-dasharray:7,7;" fill="none" id="s2-to-hz"/><polygon points="645.48,768.66,649.48,759.66,645.48,763.66,641.48,759.66,645.48,768.66" fill="#2166AC" style="stroke:#2166AC;stroke-width:1.3;stroke-linejoin:miter;stroke-miterlimit:10;"/></g><!--link s3 to hz--><g class="link" data-entity-1="ent0016" data-entity-2="ent0023" id="lnk37" data-source-line="122" data-link-type="dependency"><path d="M1284.27,487.59 C1284.27,568.7 1284.27,812.99 1284.27,812.99 C1284.27,812.99 927.46,812.99 669.88,812.99" style="stroke:#2166AC;stroke-width:1.3;stroke-dasharray:7,7;" fill="none" id="s3-to-hz"/><polygon points="664.88,812.99,673.88,816.99,669.88,812.99,673.88,808.99,664.88,812.99" fill="#2166AC" style="stroke:#2166AC;stroke-width:1.3;stroke-linejoin:miter;stroke-miterlimit:10;"/></g><!--link i1 to hz--><g class="link" data-entity-1="ent0007" data-entity-2="ent0023" id="lnk38" data-source-line="123" data-link-type="dependency"><path d="M425,487.59 C425,548.54 425,696.29 425,763.73" style="stroke:#6D28D9;stroke-width:1.3;" fill="none" id="i1-to-hz"/><polygon points="425,768.73,429,759.73,425,763.73,421,759.73,425,768.73" fill="#6D28D9" style="stroke:#6D28D9;stroke-width:1.3;stroke-linejoin:miter;stroke-miterlimit:10;"/><text x="399" y="625.4422" fill="#000000" font-size="10" lengthAdjust="spacing" textLength="25.1416" font-family="'Arial, Helvetica, sans-serif'">write</text></g><!--link i2 to hz--><g class="link" data-entity-1="ent0012" data-entity-2="ent0023" id="lnk39" data-source-line="124" data-link-type="dependency"><path d="M899.31,572.99 C795.51,572.99 651.88,572.99 651.88,572.99 C651.88,572.99 651.88,700.64 651.88,763.85" style="stroke:#6D28D9;stroke-width:1.3;" fill="none" id="i2-to-hz"/><polygon points="651.88,768.85,655.88,759.85,651.88,763.85,647.88,759.85,651.88,768.85" fill="#6D28D9" style="stroke:#6D28D9;stroke-width:1.3;stroke-linejoin:miter;stroke-miterlimit:10;"/></g><!--link i3 to hz--><g class="link" data-entity-1="ent0017" data-entity-2="ent0023" id="lnk40" data-source-line="125" data-link-type="dependency"><path d="M1349.15,683.99 C1133.08,683.99 658.27,683.99 658.27,683.99 C658.27,683.99 658.27,729.04 658.27,763.84" style="stroke:#6D28D9;stroke-width:1.3;" fill="none" id="i3-to-hz"/><polygon points="658.27,768.84,662.27,759.84,658.27,763.84,654.27,759.84,658.27,768.84" fill="#6D28D9" style="stroke:#6D28D9;stroke-width:1.3;stroke-linejoin:miter;stroke-miterlimit:10;"/></g><!--link c1 to amq--><g class="link" data-entity-1="ent0008" data-entity-2="ent0004" id="lnk41" data-source-line="128" data-link-type="dependency"><path d="M522.24,204.47 C522.24,223.47 522.24,245.99 522.24,245.99 C522.24,245.99 2099.58,245.99 2099.58,245.99 C2099.58,245.99 2099.58,232.25 2099.58,214.54" style="stroke:#DC2626;stroke-width:1.3;" fill="none" id="c1-to-amq"/><polygon points="2099.58,209.54,2095.58,218.54,2099.58,214.54,2103.58,218.54,2099.58,209.54" fill="#DC2626" style="stroke:#DC2626;stroke-width:1.3;stroke-linejoin:miter;stroke-miterlimit:10;"/><text x="1205.319" y="231.2722" fill="#000000" font-size="10" lengthAdjust="spacing" textLength="57.2412" font-family="'Arial, Helvetica, sans-serif'">JMS publish</text><text x="1160.38" y="242.9129" fill="#000000" font-size="10" lengthAdjust="spacing" textLength="147.1191" font-family="'Arial, Helvetica, sans-serif'">(PERSISTENT · sourceNodeIp)</text></g><!--link c2 to amq--><g class="link" data-entity-1="ent0013" data-entity-2="ent0004" id="lnk42" data-source-line="129" data-link-type="dependency"><path d="M1112.71,342.99 C1395.04,342.99 2129.75,342.99 2129.75,342.99 C2129.75,342.99 2129.75,262.15 2129.75,214.54" style="stroke:#DC2626;stroke-width:1.3;" fill="none" id="c2-to-amq"/><polygon points="2129.75,209.54,2125.75,218.54,2129.75,214.54,2133.75,218.54,2129.75,209.54" fill="#DC2626" style="stroke:#DC2626;stroke-width:1.3;stroke-linejoin:miter;stroke-miterlimit:10;"/></g><!--link c3 to amq--><g class="link" data-entity-1="ent0018" data-entity-2="ent0004" id="lnk43" data-source-line="130" data-link-type="dependency"><path d="M1584,435.88 C1584,422.93 1584,409.99 1584,409.99 C1584,409.99 2220.25,409.99 2220.25,409.99 C2220.25,409.99 2220.25,277.98 2220.25,214.82" style="stroke:#DC2626;stroke-width:1.3;" fill="none" id="c3-to-amq"/><polygon points="2220.25,209.82,2216.25,218.82,2220.25,214.82,2224.25,218.82,2220.25,209.82" fill="#DC2626" style="stroke:#DC2626;stroke-width:1.3;stroke-linejoin:miter;stroke-miterlimit:10;"/></g><!--link amq to i1--><g class="link" data-entity-1="ent0004" data-entity-2="ent0007" id="lnk44" data-source-line="133" data-link-type="dependency"><path d="M2159.92,209.51 C2159.92,266.4 2159.92,381.99 2159.92,381.99 C2159.92,381.99 514.92,381.99 514.92,381.99 C514.92,381.99 514.92,407.76 514.92,431.08" style="stroke:#6D28D9;stroke-width:1.3;" fill="none" id="amq-to-i1"/><polygon points="514.92,436.08,518.92,427.08,514.92,431.08,510.92,427.08,514.92,436.08" fill="#6D28D9" style="stroke:#6D28D9;stroke-width:1.3;stroke-linejoin:miter;stroke-miterlimit:10;"/><text x="1318.913" y="367.2722" fill="#000000" font-size="10" lengthAdjust="spacing" textLength="66.499" font-family="'Arial, Helvetica, sans-serif'">JMS consume</text><text x="1308.62" y="378.9129" fill="#000000" font-size="10" lengthAdjust="spacing" textLength="87.085" font-family="'Arial, Helvetica, sans-serif'">(selector: own IP)</text></g><!--link amq to i2--><g class="link" data-entity-1="ent0004" data-entity-2="ent0012" id="lnk45" data-source-line="134" data-link-type="dependency"><path d="M2190.08,209.76 C2190.08,269.87 2190.08,395.99 2190.08,395.99 C2190.08,395.99 1097.58,395.99 1097.58,395.99 C1097.58,395.99 1097.58,493 1097.58,542.02" style="stroke:#6D28D9;stroke-width:1.3;" fill="none" id="amq-to-i2"/><polygon points="1097.58,547.02,1101.58,538.02,1097.58,542.02,1093.58,538.02,1097.58,547.02" fill="#6D28D9" style="stroke:#6D28D9;stroke-width:1.3;stroke-linejoin:miter;stroke-miterlimit:10;"/></g><!--link amq to i3--><g class="link" data-entity-1="ent0004" data-entity-2="ent0017" id="lnk46" data-source-line="135" data-link-type="dependency"><path d="M2250.42,209.47 C2250.42,319.19 2250.42,683.99 2250.42,683.99 C2250.42,683.99 1780.2,683.99 1563.94,683.99" style="stroke:#6D28D9;stroke-width:1.3;" fill="none" id="amq-to-i3"/><polygon points="1558.94,683.99,1567.94,687.99,1563.94,683.99,1567.94,679.99,1558.94,683.99" fill="#6D28D9" style="stroke:#6D28D9;stroke-width:1.3;stroke-linejoin:miter;stroke-miterlimit:10;"/></g><!--link c1 to dl1--><g class="link" data-entity-1="ent0008" data-entity-2="ent0009" id="lnk47" data-source-line="138" data-link-type="dependency"><path d="M425,204.27 C425,235.12 425,281.57 425,312.34" style="stroke:#181818;stroke-width:1.3;" fill="none" id="c1-to-dl1"/><polygon points="425,317.34,429,308.34,425,312.34,421,308.34,425,317.34" fill="#181818" style="stroke:#181818;stroke-width:1.3;stroke-linejoin:miter;stroke-miterlimit:10;"/><text x="399" y="258.0822" fill="#000000" font-size="10" lengthAdjust="spacing" textLength="25.1416" font-family="'Arial, Helvetica, sans-serif'">write</text></g><!--link c2 to dl2--><g class="link" data-entity-1="ent0013" data-entity-2="ent0014" id="lnk48" data-source-line="139" data-link-type="dependency"><path d="M1004,368.62 C1004,388.71 1004,411.44 1004,431.41" style="stroke:#181818;stroke-width:1.3;" fill="none" id="c2-to-dl2"/><polygon points="1004,436.41,1008,427.41,1004,431.41,1000,427.41,1004,436.41" fill="#181818" style="stroke:#181818;stroke-width:1.3;stroke-linejoin:miter;stroke-miterlimit:10;"/></g><!--link c3 to dl3--><g class="link" data-entity-1="ent0018" data-entity-2="ent0019" id="lnk49" data-source-line="140" data-link-type="dependency"><path d="M1506.19,487.5 C1506.19,505.55 1506.19,524.57 1506.19,542.5" style="stroke:#181818;stroke-width:1.3;" fill="none" id="c3-to-dl3"/><polygon points="1506.19,547.5,1510.19,538.5,1506.19,542.5,1502.19,538.5,1506.19,547.5" fill="#181818" style="stroke:#181818;stroke-width:1.3;stroke-linejoin:miter;stroke-miterlimit:10;"/></g><!--link dl1 to i1--><g class="link" data-entity-1="ent0009" data-entity-2="ent0007" id="lnk50" data-source-line="143" data-link-type="dependency"><path d="M425,368.04 C425,388.09 425,411.02 425,431.16" style="stroke:#181818;stroke-width:1.3;stroke-dasharray:7,7;" fill="none" id="dl1-to-i1"/><polygon points="425,436.16,429,427.16,425,431.16,421,427.16,425,436.16" fill="#181818" style="stroke:#181818;stroke-width:1.3;stroke-linejoin:miter;stroke-miterlimit:10;"/><text x="402" y="399.3822" fill="#000000" font-size="10" lengthAdjust="spacing" textLength="22.7393" font-family="'Arial, Helvetica, sans-serif'">read</text></g><!--link dl2 to i2--><g class="link" data-entity-1="ent0014" data-entity-2="ent0012" id="lnk51" data-source-line="144" data-link-type="dependency"><path d="M1004,487.22 C1004,505.13 1004,524.02 1004,542" style="stroke:#181818;stroke-width:1.3;stroke-dasharray:7,7;" fill="none" id="dl2-to-i2"/><polygon points="1004,547,1008,538,1004,542,1000,538,1004,547" fill="#181818" style="stroke:#181818;stroke-width:1.3;stroke-linejoin:miter;stroke-miterlimit:10;"/></g><!--link dl3 to i3--><g class="link" data-entity-1="ent0019" data-entity-2="ent0017" id="lnk52" data-source-line="145" data-link-type="dependency"><path d="M1454,598.17 C1454,616.09 1454,634.98 1454,652.95" style="stroke:#181818;stroke-width:1.3;stroke-dasharray:7,7;" fill="none" id="dl3-to-i3"/><polygon points="1454,657.95,1458,648.95,1454,652.95,1450,648.95,1454,657.95" fill="#181818" style="stroke:#181818;stroke-width:1.3;stroke-linejoin:miter;stroke-miterlimit:10;"/></g><!--link dl1 to dl2--><g class="link" data-entity-1="ent0009" data-entity-2="ent0014" id="lnk53" data-source-line="148" data-link-type="dependency"><path d="M512.96,355.99 C544.33,355.99 567.61,355.99 567.61,355.99 C567.61,355.99 567.61,461.99 567.61,461.99 C567.61,461.99 789.28,461.99 915.89,461.99" style="stroke:#92400E;stroke-width:1.3;" fill="none" id="dl1-dl2"/><polygon points="507.96,355.99,516.96,359.99,512.96,355.99,516.96,351.99,507.96,355.99" fill="#92400E" style="stroke:#92400E;stroke-width:1.3;stroke-linejoin:miter;stroke-miterlimit:10;"/><polygon points="920.89,461.99,911.89,457.99,915.89,461.99,911.89,465.99,920.89,461.99" fill="#92400E" style="stroke:#92400E;stroke-width:1.3;stroke-linejoin:miter;stroke-miterlimit:10;"/><text x="610.42" y="459.2722" fill="#000000" font-size="10" lengthAdjust="spacing" textLength="50.6348" font-family="'Arial, Helvetica, sans-serif'">R=2 HTTP</text></g><!--link dl2 to dl3--><g class="link" data-entity-1="ent0014" data-entity-2="ent0019" id="lnk54" data-source-line="149" data-link-type="dependency"><path d="M1091.89,474.99 C1139.13,474.99 1184,474.99 1184,474.99 C1184,474.99 1184,572.99 1184,572.99 C1184,572.99 1286.79,572.99 1366.16,572.99" style="stroke:#92400E;stroke-width:1.3;" fill="none" id="dl2-dl3"/><polygon points="1086.89,474.99,1095.89,478.99,1091.89,474.99,1095.89,470.99,1086.89,474.99" fill="#92400E" style="stroke:#92400E;stroke-width:1.3;stroke-linejoin:miter;stroke-miterlimit:10;"/><polygon points="1371.16,572.99,1362.16,568.99,1366.16,572.99,1362.16,576.99,1371.16,572.99" fill="#92400E" style="stroke:#92400E;stroke-width:1.3;stroke-linejoin:miter;stroke-miterlimit:10;"/><text x="1133" y="566.2922" fill="#000000" font-size="10" lengthAdjust="spacing" textLength="50.6348" font-family="'Arial, Helvetica, sans-serif'">R=2 HTTP</text></g><?plantuml-src vLbVZnev4d_dKvJOXsK8CDFDXCoWJIIcQHBsPfWv89UJTgB8T1lQmjYzRlSGibffd-vvjThxBFT-7oMVvCfsmp24kTD9EmzaEqJfTjdrpxygLpdVmkVVV_ap_4hVmf2AcAesGCg9qFc2GrsdyHI8YXAcQQHpHHifZkFSpNCzX9HacWBH08dMQTO-FbukbuqraqOa5yVhZsFp5vV_MPnQqZ85BM4YjPOBY9b2Dp8fIgLipaHA55a0PuBgLKeBXqgb4xb5df1eFbCo5t4WkLJmJU-ir-a5MpDYEYKvrpqfz80iA9GxYX5UWpUKtr7D8bA3Z8Yidb75fkNz2qVi4mNlP8kO9IIMIoPcXLvJmZEwHIzKKe8gIszjqJfAoUKuOT5Sq2m3y1hDROk5Z2dyL0AusBKjxFLQlPwXI8LOTAFc-QPvSURtMXlAFNElyHn7hGrwnTTUd4WUhuUDQSNZUQMVjnH1QAPIKA7tQhCqgD-do_bf1zNPfyiUaUSF9CP4amd97Z6_5_QQmOkz8ltJavFmVxAFkCpZ_Rox5s6d5-xZxNkjLYVuxwxTzk790v4aqiZe__9Vw_J5wTa5SZ6Pu9-_7kZFPCphTt02dt_v7GBE44Q7RO_RoR8pfGmaGpXPgxw6RVBiDbsPeqgv15J13ATe34nC5Gwht1vmHuTjhBMiN9WvC1_6x9kWxdddJRkd2qSp0NkV_ihLwc36nCTg5Tfd9xU2Kvpr8P92mB__PGxuZDrHI2ZXEe7AWdpyC2MCPo-RHxVYx_MtARgFaaMz4yVApC9mjxA4uOcfn-jrmkUx0Zju4jxHgxyQcIqF_zoA7tEQqpR4CieNEAk1fmz5RUDRSHCEH_tHE1oCZKB1PH_VFdI2lmoktrs6tTUX5KSMFvhqqWj3F_I_alJYsmry9zMym2qUfnKjPrGdEF3v7x_XsOvdVY8L-uI9cd1GHCmF7CKR-tug8MeSfWiCWu6VHV0pIpXoGFCie7SGDgAcT7MOFlDlnHloYV88LqFx-OiJto1fJDLYWDC24YMO4Yw7Rnt3pDiwCNVOzh5C_aXLmTVRvUiPlYock49J4Qq0EKVpCXYs3Dc6tV1y7zj0aINViCKWV9tZ-WbLiwvS2YvDL1dMv_1sU0bt18iyeJENfxsj88Fx8WFANNpbP4vlHMMIHtEgWPELpBLXr9MH0TMTv1XjQFR31zd6t1GqF-_kWOTxiBI0B9pl_z7Ezv_6-VxJEDz_8kVx-vplxpg_-KSxl_aqpcy-ZVERJ-JyfdC-_WGQ0uhD4WroYlv6GhNgDkFKC7ElhVlNiseLvqmbvt89cCPSXaw9ngmb6aWAf9Yo6GJm4bf5JjSIjMsKi0C78--hEBgQzkYwXqZCi4nW4zpR62lBt2JnmpRJTLjbWuTxAmDd6O8PRikPZSDwOUqjJgsCWvjw_yQWnNJsUHfWmwGH2JuUQDuHBX80LzYLiokIVZT2XubPpVtp2h1MlQCA_LTd9XAHszy8pocsLjpTAunNAMsCmd71fszuz8McCwfg5rBEhwWc9aPUcGvPpkkBuXiv2LGL8fiCKBVhY-_3mDPQA99mXfFejGWIWXKPChUnbtmwU9Y-wNUxuG0wGyJhoC9rAbM4uOwHQxjMM3ATcAmHOuuobo7cjYOxTDYQhWxgFoGiZgbu7sEIhRyg6eDIKLtjKeNtACL_bD8iOM5cdbqAGWUhXiSepSSeXmwtu7emmB3gNmz6XssA2Ptn-0RCsOnvZ1CHsPl2Ie4jqvTSNhZsnAP0J2EPnbaqEzhWRuqIsoIs7SDZDxta1g6ETFDa5aPkpfhMQ1Gq_ukHfbLmav8NT875H9Qm58TTQGJOhyPP3OgA1fQAQOnhb5F_eRWGgyKaIsZyta8FPPiL9InDzqyeOTtq28LPfgskVzOzVryOX8zbQkMMcF_8Z19hFaP1Kxw_6a6QJpZB4kDwLqLPfq-KD1LYARAYku7VybjckUcGszlhi3fws5fdCiS4Q6uE-YckzxzONugQNuuLoaHIP5XHeJ9E0QiBSowksKgdJgPJ9fXU8IxCcILHIQFK0oFHOUrjVgZaUdOR43JGlzctojypPf5Gr9V59flxU2uZx9JZeaIqRiBPsEzijiHOReTyQx1zjSpMYB40WgcIYnrkK5cNdaDx4r83FBrdU09ZsJDP6RkEIaQIGQkrr08B1RaH7r-RxjNAMpE3b59LLpJbB2Bch4Sl3r_wDTFlnwY48TTS42rC-P0IfU7cUZHsqhv3lxXBvFVEB1ICorr4cS_T2Stj2OUUU2_3r-6WU-XNUzY7kFz8iYr8qSG4ffFAQDiKdAcIKyRfo-8yDj5dh_Mmj5pVja5bVP4Y1LzXAOSnlrbd6qspQfrBdgsZ5z-AH5uXdBkcvSYgCOgaAKwj_6VU2MYcEOM4sKRhsNCWEHPGQZFWeGdnodvYpIbXtAltkpt7QaWZYVNjol9IT98p7jjmws6KNPeWww6MMUK8beJfpDHgmBAYu1wHAKKAzbi2J9IGLGRL3qPOGtzq9zBcHDZqMVy1?></g></svg>